<svg xmlns="http://www.w3.org/2000/svg" width="189.361" height="51.395" viewBox="0 0 189.361 51.395"><defs><style>.a{fill:#003459;}.b{fill:#00a8b5;}.c{fill:#83ffe6;}.d{fill:#ff5f5f;}</style></defs><g transform="translate(-304.019 224.104)"><g transform="translate(304.019 -224.104)"><path class="a" d="M45.419,32.368a4.777,4.777,0,0,0-3.866,7.575,20.475,20.475,0,0,1-14.233,5.7c-.636,0-1.277-.027-1.92-.085a7.268,7.268,0,0,0-12.725-6.02,20.437,20.437,0,0,1-5.864-12.3A5.669,5.669,0,0,0,8.405,16.71,19.81,19.81,0,0,1,10.4,13.2a21.178,21.178,0,0,1,7.015-6.294,4.424,4.424,0,0,0,8.112-2.441h0q.893-.078,1.8-.076A20.313,20.313,0,0,1,39.375,8.276a5.6,5.6,0,0,0-.789,2.886,5.662,5.662,0,1,0,2.542-4.72A22.876,22.876,0,0,0,28.091,1.89c-.254,0-.51-.013-.762-.013a23.436,23.436,0,0,0-2.542.139A4.426,4.426,0,0,0,16.7,4.489h0A23.478,23.478,0,0,0,6,16.029H5.679A5.667,5.667,0,0,0,4.269,27.182a23.078,23.078,0,0,0,7.125,14.644c-.031.09-.061.18-.088.265a7.265,7.265,0,0,0,13.113,5.957A.4.4,0,0,0,24.452,48a23.071,23.071,0,0,0,19.081-6.458,4.72,4.72,0,0,0,1.881.387,4.774,4.774,0,1,0,0-9.549ZM41.373,9.915a2.922,2.922,0,0,1,.317-.56,3.147,3.147,0,0,1,.926-.87,3.021,3.021,0,0,1,.609-.288h0a3.053,3.053,0,0,1,1.027-.175,3.147,3.147,0,1,1-3.147,3.147,3.1,3.1,0,0,1,.267-1.254ZM19.262,4A1.9,1.9,0,0,1,21.1,2.576a1.967,1.967,0,0,1,.366.036h0a1.908,1.908,0,0,1,1.513,1.6,1.771,1.771,0,0,1,.02.27,2.023,2.023,0,0,1-.036.373,1.9,1.9,0,0,1-3.212.969,1.933,1.933,0,0,1-.371-.528,1.893,1.893,0,0,1-.182-.814A1.863,1.863,0,0,1,19.262,4ZM6.068,24.8A3.113,3.113,0,0,1,4.8,24.7a3,3,0,0,1-.625-.261,3.147,3.147,0,0,1,1.5-5.9h.074a3.122,3.122,0,0,1,1.212.274,3.275,3.275,0,0,1,.557.324,3.147,3.147,0,0,1-.827,5.518,3.068,3.068,0,0,1-.627.146ZM22.7,45.142a4.071,4.071,0,0,1-.16.566.4.4,0,0,1-.013.038,4.516,4.516,0,0,1-.614,1.137c-.034.045-.065.088-.1.13a4.091,4.091,0,0,1-.362.4,4.536,4.536,0,0,1-7.726-3.228,3.27,3.27,0,0,1,.018-.42,3.72,3.72,0,0,1,.054-.391c.018-.1.04-.2.065-.3a4.473,4.473,0,0,1,.45-1.11.76.76,0,0,1,.054-.092,4.394,4.394,0,0,1,.357-.517,4.538,4.538,0,0,1,8.092,2.834,4.453,4.453,0,0,1-.117.953ZM45.46,39.39h-.04a2.234,2.234,0,0,1-1.733-.816,2.2,2.2,0,0,1-.342-.566,2.248,2.248,0,1,1,2.12,1.382Z" transform="translate(-0.019 -0.069)"/><path class="b" d="M89.161,13.122a2.023,2.023,0,0,1-.036.373,1.9,1.9,0,0,1-3.212.969,1.933,1.933,0,0,1-.371-.528,1.893,1.893,0,0,1-.182-.814,1.864,1.864,0,0,1,.061-.479,1.9,1.9,0,0,1,1.839-1.423,1.967,1.967,0,0,1,.366.036h0a1.908,1.908,0,0,1,1.513,1.6A1.769,1.769,0,0,1,89.161,13.122Z" transform="translate(-66.177 -8.714)"/><path class="c" d="M189.054,38.592a3.147,3.147,0,1,1-6.294,0,3.1,3.1,0,0,1,.279-1.25,2.922,2.922,0,0,1,.317-.56,3.147,3.147,0,0,1,.926-.87,3.021,3.021,0,0,1,.609-.288h0a3.053,3.053,0,0,1,1.027-.175A3.147,3.147,0,0,1,189.054,38.592Z" transform="translate(-141.684 -27.497)"/><path class="b" d="M196.5,157.249a2.248,2.248,0,0,1-2.205,2.248h-.042a2.234,2.234,0,0,1-1.733-.816,2.2,2.2,0,0,1-.342-.566,2.248,2.248,0,1,1,4.322-.865Z" transform="translate(-148.847 -120.177)"/><path class="c" d="M70.074,180.656a4.452,4.452,0,0,1-.1.953,4.07,4.07,0,0,1-.16.566c0,.013-.008.026-.013.038a4.517,4.517,0,0,1-.614,1.137c-.034.045-.065.088-.1.13a4.091,4.091,0,0,1-.362.4A4.536,4.536,0,0,1,61,180.656a3.269,3.269,0,0,1,.018-.42,3.715,3.715,0,0,1,.054-.391c.018-.1.04-.2.065-.3a4.474,4.474,0,0,1,.45-1.11.762.762,0,0,1,.054-.092,4.4,4.4,0,0,1,.357-.517,4.538,4.538,0,0,1,8.092,2.834Z" transform="translate(-47.293 -136.537)"/><path class="d" d="M17.558,85.392a3.147,3.147,0,0,1-2.129,2.974,3.066,3.066,0,0,1-.627.146,3.113,3.113,0,0,1-1.268-.1,3,3,0,0,1-.625-.261,3.147,3.147,0,0,1,1.5-5.9h.074a3.122,3.122,0,0,1,1.212.274,3.275,3.275,0,0,1,.557.324A3.147,3.147,0,0,1,17.558,85.392Z" transform="translate(-8.753 -63.778)"/><path class="a" d="M248.022,142.409a7.143,7.143,0,0,1-5.453-2.16,7.975,7.975,0,0,1-2.039-5.707,8.349,8.349,0,0,1,2.122-6.069,7.6,7.6,0,0,1,5.732-2.183,6.91,6.91,0,0,1,5.377,2.122,8.4,8.4,0,0,1,1.933,5.882,8.275,8.275,0,0,1-2.084,5.9A7.273,7.273,0,0,1,248.022,142.409Zm.18-14.051a4.7,4.7,0,0,0-3.761,1.616,6.631,6.631,0,0,0-1.382,4.462,6.278,6.278,0,0,0,1.4,4.316,4.741,4.741,0,0,0,3.745,1.573,4.512,4.512,0,0,0,3.68-1.549,6.724,6.724,0,0,0,1.286-4.408,6.841,6.841,0,0,0-1.286-4.453,4.456,4.456,0,0,0-3.68-1.551Z" transform="translate(-186.469 -97.919)"/><path class="a" d="M347.31,142.042h-2.473V133.2a6.673,6.673,0,0,0-.789-3.7,3,3,0,0,0-2.655-1.144,3.331,3.331,0,0,0-2.7,1.443,5.532,5.532,0,0,0-1.106,3.462v8.784h-2.473V132.9q0-4.543-3.5-4.543a3.243,3.243,0,0,0-2.677,1.362,5.59,5.59,0,0,0-1.054,3.542v8.784H325.41v-15.4h2.473v2.437h.061a5.232,5.232,0,0,1,4.783-2.8,4.453,4.453,0,0,1,4.363,3.19,5.5,5.5,0,0,1,5.116-3.19q5.084,0,5.084,6.274Z" transform="translate(-252.27 -97.907)"/><path class="a" d="M465.4,142.042h-2.472V133.2a6.672,6.672,0,0,0-.789-3.7,2.994,2.994,0,0,0-2.657-1.144A3.3,3.3,0,0,0,456.8,129.8a5.532,5.532,0,0,0-1.106,3.462v8.784h-2.473V132.9q0-4.543-3.5-4.543a3.244,3.244,0,0,0-2.677,1.362,5.59,5.59,0,0,0-1.054,3.542v8.784H443.51v-15.4h2.473v2.437h.061a5.232,5.232,0,0,1,4.783-2.8,4.453,4.453,0,0,1,4.363,3.19,5.5,5.5,0,0,1,5.114-3.19q5.084,0,5.084,6.274Z" transform="translate(-343.824 -97.907)"/><path class="a" d="M572.958,143.24h-2.473V140.8h-.061a5.054,5.054,0,0,1-4.75,2.792q-5.5,0-5.5-6.559V127.82h2.452v8.816q0,4.871,3.731,4.873a3.772,3.772,0,0,0,2.969-1.331,5.1,5.1,0,0,0,1.167-3.482v-8.861h2.473Z" transform="translate(-434.261 -99.105)"/><path class="a" d="M651.959,142.038h-2.473v-8.784q0-4.907-3.581-4.9a3.88,3.88,0,0,0-3.062,1.391,5.157,5.157,0,0,0-1.211,3.513v8.784H639.16v-15.4h2.473v2.558h.061a5.561,5.561,0,0,1,5.055-2.922,4.719,4.719,0,0,1,3.866,1.632,7.291,7.291,0,0,1,1.349,4.72Z" transform="translate(-495.496 -97.903)"/><path class="a" d="M714.83,186.222a1.589,1.589,0,0,1-1.18-.5,1.631,1.631,0,0,1-.49-1.187,1.658,1.658,0,0,1,.49-1.2,1.573,1.573,0,0,1,1.18-.5,1.619,1.619,0,0,1,1.2.5,1.639,1.639,0,0,1,.5,1.2,1.612,1.612,0,0,1-.5,1.187A1.629,1.629,0,0,1,714.83,186.222Z" transform="translate(-552.862 -141.757)"/><path class="a" d="M746.627,99.441a1.573,1.573,0,0,1-1.124-.45,1.523,1.523,0,0,1-.465-1.144,1.573,1.573,0,0,1,1.594-1.609,1.591,1.591,0,0,1,1.151.45,1.535,1.535,0,0,1,.474,1.151,1.517,1.517,0,0,1-.474,1.124A1.573,1.573,0,0,1,746.627,99.441Zm1.2,19.315h-2.473v-15.4h2.473Z" transform="translate(-577.574 -74.621)"/><path class="a" d="M782.492,142.409a7.139,7.139,0,0,1-5.453-2.16A7.987,7.987,0,0,1,775,134.542a8.35,8.35,0,0,1,2.122-6.069,7.6,7.6,0,0,1,5.732-2.183,6.91,6.91,0,0,1,5.377,2.122,8.4,8.4,0,0,1,1.933,5.882,8.275,8.275,0,0,1-2.084,5.9A7.273,7.273,0,0,1,782.492,142.409Zm.18-14.051a4.7,4.7,0,0,0-3.76,1.616,6.639,6.639,0,0,0-1.385,4.462,6.271,6.271,0,0,0,1.4,4.316,4.745,4.745,0,0,0,3.745,1.573,4.512,4.512,0,0,0,3.68-1.549,6.725,6.725,0,0,0,1.286-4.408,6.841,6.841,0,0,0-1.286-4.453,4.457,4.457,0,0,0-3.68-1.551Z" transform="translate(-600.802 -97.919)"/></g></g></svg>